<?xml version="1.0" encoding="utf-8"?>
<!-- Generator: Adobe Illustrator 24.0.0, SVG Export Plug-In . SVG Version: 6.00 Build 0)  -->
<svg version="1.1" id="principale" xmlns="http://www.w3.org/2000/svg" xmlns:xlink="http://www.w3.org/1999/xlink" x="0px" y="0px"
	 viewBox="0 0 437.7 89.7" style="enable-background:new 0 0 437.7 89.7;" xml:space="preserve">
<style type="text/css">
	.st0{fill:#FFFFFF;}
</style>
<g>
	<path class="st0" d="M25,21.2c0-4.2,0-8.5,0-12.7c-4.1,0-8.2,0-12.3,0c0,4.2,0,8.5,0,12.7c-4.2,0-8.5,0-12.8,0c0,3.5,0,6.9,0,10.4
		c4.3,0,8.5,0,12.8,0c0,5.4,0,10.7,0,16.1c0,6.5,1,10.6,3.4,13.7C19.3,65.5,24.7,68,32,68c2.4,0,6-0.4,7.7-0.9
		c-0.6-3.5-1.3-6.9-1.9-10.4c-0.8,0.2-3.2,0.5-5,0.5c-3,0-5-0.8-6.2-2.3c-1-1.2-1.5-2.9-1.5-5.8c0-5.8,0-11.6,0-17.5
		c5,0,10.1,0,15.1,0c0.1,0,0.2,0,0.3,0c1.1-2.5,2.5-4.9,4.2-7c1-1.2,2-2.3,3.2-3.3c-2.5,0-5.1,0-7.6,0C35.1,21.2,30.1,21.2,25,21.2z
		"/>
	<path class="st0" d="M107.2,25.9c0-1.5,0-3.1,0-4.6c-3.9,0-7.9,0-11.8,0c0,15.3,0,30.5,0,45.8c4.1,0,8.2,0,12.3,0
		c0-9.6,0-19.2,0-28.8c3.4-5.9,11.4-8.6,17.7-5.3c0-4,0-8.1,0-12.1C119,19.4,111.5,20.7,107.2,25.9z"/>
	<path class="st0" d="M143.1,25.9c0-1.5,0-3.1,0-4.6c-3.9,0-7.9,0-11.8,0c0,15.3,0,30.5,0,45.8c4.1,0,8.2,0,12.3,0
		c0-9.6,0-19.2,0-28.8c2.9-5,9.2-7.7,14.9-6.3c0.3-0.7,0.6-1.3,0.9-1.9c1-1.9,2.1-3.7,3.5-5.3c0.7-0.9,1.5-1.8,2.4-2.6
		C158.4,19.1,148.4,19.6,143.1,25.9z"/>
	<path class="st0" d="M406.3,38.2c0.6-4.2,4.7-8,9.8-8c5,0,8.7,4,9.1,8C418.9,38.2,412.6,38.2,406.3,38.2z M429.6,52.8
		c-2.2,2.4-6.3,5.3-11.5,5.3c-6.5,0-11.7-4.4-12.4-10.9c10.6,0,21.2,0,31.7,0c0.2-1,0.3-2.3,0.3-3.5c0-12.8-9-23.4-21.6-23.4
		c-13.6,0-22.3,11.1-22.3,23.9c0,14.4,10.3,23.8,24,23.8c7.1,0,14.4-2.9,18.8-8.2C434.3,57.5,431.9,55.1,429.6,52.8z"/>
	<path class="st0" d="M331.5,51c-2.4,3.4-6.4,5.7-11.1,5.7c-6.9,0-12.1-5.3-12.1-12.5c0-6.6,4.6-12.6,11.8-12.6
		c4.7,0,8.8,2.3,11.3,5.7C331.5,41.9,331.5,46.4,331.5,51z M343.8,21.3c-3.9,0-7.9,0-11.8,0c0,1.2,0,2.5,0,3.7
		c-3.6-2.9-8.2-4.6-13.4-4.6c-12.5,0-22.5,10.4-22.5,23.9c0,6.2,2.3,11.9,5.9,16.1C306,65,312.4,68,319.2,68c4.6,0,9-1.4,12.8-4.6
		c0,1.2,0,2.5,0,3.7c3.9,0,7.9,0,11.8,0C343.8,51.8,343.8,36.5,343.8,21.3z"/>
	<rect x="276.2" y="0" class="st0" width="12.3" height="67.1"/>
	<path class="st0" d="M233.3,37.3c2.6-3.4,6.6-5.7,11.3-5.7c7.2,0,11.8,6,11.8,12.6c0,7.2-5.2,12.5-12.1,12.5
		c-4.6,0-8.7-2.3-11.1-5.7C233.3,46.4,233.3,41.9,233.3,37.3z M221,89.7c4.1,0,8.2,0,12.3,0c0-8.6,0-17.3,0-25.9
		c3.7,2.8,7.7,4.2,12.3,4.2c6.8,0,13.3-3,17.4-7.7c3.6-4.2,5.8-9.8,5.8-16.1c0-13.5-10-23.9-22.5-23.9c-5.2,0-9.8,1.7-13.4,4.6
		c0-1.2,0-2.5,0-3.7c-3.9,0-7.9,0-11.8,0C221,44.1,221,66.9,221,89.7z"/>
	<path class="st0" d="M197.4,51c-2.4,3.4-6.4,5.7-11,5.7c-6.9,0-12.1-5.3-12.1-12.5c0-6.6,4.6-12.6,11.8-12.6
		c4.7,0,8.8,2.3,11.3,5.7C197.4,41.9,197.4,46.4,197.4,51z M209.7,21.3c-3.9,0-7.9,0-11.8,0c0,1.2,0,2.5,0,3.7
		c-3.6-2.9-8.2-4.6-13.4-4.6C172,20.3,162,30.7,162,44.2c0,6.2,2.3,11.9,5.9,16.1c4.1,4.7,10.5,7.7,17.3,7.7c4.6,0,9-1.4,12.8-4.6
		c0,1.2,0,2.5,0,3.7c3.9,0,7.9,0,11.8,0C209.7,51.8,209.7,36.5,209.7,21.3z"/>
	<path class="st0" d="M56.4,38.2c0.6-4.2,4.7-8,9.8-8c5,0,8.7,4,9.1,8C69,38.2,62.7,38.2,56.4,38.2z M79.7,52.8
		c-2.2,2.4-6.3,5.3-11.5,5.3c-6.5,0-11.7-4.4-12.4-10.9c10.6,0,21.2,0,31.7,0c0.2-1,0.3-2.3,0.3-3.5c0-12.8-9-23.4-21.6-23.4
		c-13.6,0-22.3,11.1-22.3,23.9c0,14.4,10.3,23.8,24,23.8c7.1,0,14.4-2.9,18.8-8.2C84.4,57.5,82,55.1,79.7,52.8z"/>
	<path class="st0" d="M374.9,21.2c0-4.2,0-8.5,0-12.7c-4.1,0-8.2,0-12.3,0c0,4.2,0,8.5,0,12.7c-4.2,0-8.5,0-12.8,0
		c0,3.5,0,6.9,0,10.4c4.3,0,8.5,0,12.8,0c0,5.4,0,10.7,0,16.1c0,6.5,1,10.6,3.4,13.7c3.1,4.2,8.5,6.6,15.9,6.6c2.4,0,6-0.4,7.6-0.9
		c-0.6-3.5-1.3-6.9-1.9-10.4c-0.9,0.2-3.2,0.5-5,0.5c-3,0-5-0.8-6.2-2.3c-1-1.2-1.5-2.9-1.5-5.8c0-5.8,0-11.6,0-17.5
		c5,0,10.1,0,15.1,0c0.1,0,0.2,0,0.3,0c1.1-2.5,2.5-4.9,4.2-7c1-1.2,2-2.3,3.2-3.3c-2.5,0-5.1,0-7.6,0C385,21.2,380,21.2,374.9,21.2
		z"/>
</g>
</svg>
