<?xml version="1.0" encoding="utf-8"?>
<!-- Generator: Adobe Illustrator 24.0.0, SVG Export Plug-In . SVG Version: 6.00 Build 0)  -->
<svg version="1.1" id="principale" xmlns="http://www.w3.org/2000/svg" xmlns:xlink="http://www.w3.org/1999/xlink" x="0px" y="0px"
	 viewBox="0 0 177.3 154.8" style="enable-background:new 0 0 177.3 154.8;" xml:space="preserve">
<style type="text/css">
	.st0{fill:#FFFFFF;}
</style>
<g>
	<path class="st0" d="M47.7,24.3c0-8.1,0-16.2,0-24.3c-7.8,0-15.6,0-23.4,0c0,8.1,0,16.2,0,24.3c-8.1,0-16.2,0-24.3,0
		c0,6.6,0,13.2,0,19.8c8.1,0,16.2,0,24.3,0c0,10.2,0,20.4,0,30.6c0,12.4,2,20.2,6.5,26.1c5.9,7.9,16.2,12.6,30.2,12.6
		c4.5,0,11.5-0.7,14.6-1.8c-1.2-6.6-2.4-13.2-3.6-19.8c-1.6,0.4-6.1,0.9-9.5,0.9c-5.8,0-9.5-1.6-11.9-4.3c-2-2.3-2.9-5.6-2.9-11
		c0-11.1,0-22.2,0-33.3c9.6,0,19.2,0,28.8,0c0.2,0,0.4,0,0.6,0c2-4.8,4.7-9.4,7.9-13.4c1.8-2.3,3.8-4.4,6-6.4c-4.8,0-9.7,0-14.5,0
		C66.9,24.3,57.3,24.3,47.7,24.3z"/>
	<path class="st0" d="M109.8,54.9c4.9-6.5,12.6-10.8,21.6-10.8c13.7,0,22.5,11.3,22.5,23.9c0,13.7-9.9,23.8-23,23.8
		c-8.8,0-16.6-4.3-21.1-10.8C109.8,72.3,109.8,63.6,109.8,54.9z M86.4,58.7c0,32,0,64,0,96.1c7.8,0,15.6,0,23.4,0
		c0-16.4,0-32.9,0-49.3c7,5.4,14.6,7.9,23.4,7.9c13,0,25.4-5.8,33.1-14.8c6.8-7.9,11-18.7,11-30.6c0-25.7-19.1-45.5-42.8-45.5
		c-2.3,0-4.6,0-6.9,0c-18.1,0-33.4,11.4-39.7,28.2C86.9,53.4,86.4,55.9,86.4,58.7z"/>
</g>
</svg>
