<?xml version="1.0" encoding="utf-8"?>
<!-- Generator: Adobe Illustrator 16.0.0, SVG Export Plug-In . SVG Version: 6.00 Build 0)  -->
<!DOCTYPE svg PUBLIC "-//W3C//DTD SVG 1.1//EN" "http://www.w3.org/Graphics/SVG/1.1/DTD/svg11.dtd">
<svg version="1.1" id="principale" xmlns="http://www.w3.org/2000/svg" xmlns:xlink="http://www.w3.org/1999/xlink" x="0px" y="0px"
	 width="911.148px" height="270.395px" viewBox="0 0 911.148 270.395" enable-background="new 0 0 911.148 270.395"
	 xml:space="preserve">
<g>
	<path d="M281.246,148.724c0-2.94,0-5.879,0-8.819c-7.5,0-15,0-22.5,0c0,29.098,0,58.196,0,87.295c7.8,0,15.6,0,23.399,0
		c0-18.299,0-36.598,0-54.897c6.509-11.18,21.764-16.301,33.649-10.071c0-7.718,0-15.436,0-23.153
		C303.785,136.459,289.525,138.922,281.246,148.724z"/>
	<path d="M124.801,21.973c2.979,0,5.955,0,8.934,0c0,2.859,0,5.718,0,8.577c0,4.86-3.928,8.581-8.789,8.581
		c-4.857,0-8.786-3.72-8.786-8.581C116.159,25.74,120.01,22.046,124.801,21.973z"/>
	<path d="M229.693,51.433c-2.34,3.365-6.359,5.61-10.943,5.61c-6.826,0-11.969-5.238-11.969-12.345
		c0-6.546,4.582-12.437,11.689-12.437c4.675,0,8.697,2.244,11.223,5.611C229.693,42.393,229.693,46.913,229.693,51.433z
		 M241.85,21.976c-3.896,0-7.793,0-11.689,0c0,1.215,0,2.431,0,3.646c-3.554-2.898-8.135-4.581-13.279-4.581
		c-12.344,0-22.258,10.286-22.258,23.658c0,6.172,2.248,11.784,5.799,15.898c4.021,4.675,10.381,7.667,17.115,7.667
		c4.58,0,8.883-1.402,12.623-4.581c0,1.215,0,2.431,0,3.646c3.896,0,7.793,0,11.689,0C241.85,52.211,241.85,37.094,241.85,21.976z"
		/>
	<path d="M190.879,11.221c-1.029-0.28-2.524-0.468-3.647-0.468c-2.991,0-5.331,0.843-6.827,2.62
		c-1.029,1.308-1.682,2.993-1.682,7.199c0,0.468,0,0.936,0,1.404c4.676,0,9.352,0,14.027,0c0,3.429,0,6.857,0,10.286
		c-4.676,0-9.352,0-14.027,0c0,11.69,0,23.379,0,35.069c-4.053,0-8.105,0-12.157,0c0-11.69,0-23.379,0-35.069
		c-3.896,0-7.794,0-11.689,0c0-3.428,0-6.857,0-10.286c3.896,0,7.793,0,11.689,0c0-0.624,0-1.247,0-1.871
		c0-7.295,1.683-11.69,4.862-14.775c3.18-3.086,7.947-5.33,14.121-5.33c2.432,0,4.675,0.187,7.201,0.841
		C192.126,4.301,191.502,7.761,190.879,11.221z"/>
	<polygon points="25.061,49.656 37.5,21.976 50.123,21.976 29.27,67.331 20.852,67.331 0,21.976 12.623,21.976 	"/>
	<rect x="101.098" y="21.975" width="12.156" height="45.355"/>
	<path d="M92.491,60.13c-4.396,5.236-11.596,8.135-18.61,8.135c-13.561,0-23.752-9.351-23.752-23.566
		c0-12.624,8.604-23.658,22.07-23.658c12.53,0,21.414,10.566,21.414,23.191c0,1.216-0.094,2.432-0.281,3.459
		c-10.474,0-20.947,0-31.421,0c0.655,6.359,5.799,10.754,12.25,10.754c5.144,0,9.259-2.899,11.409-5.236
		C87.878,55.516,90.184,57.823,92.491,60.13z M81.176,38.808c-0.375-4.022-4.021-7.948-8.977-7.948
		c-5.053,0-9.166,3.834-9.728,7.948C68.707,38.808,74.941,38.808,81.176,38.808z"/>
	<path d="M142.666,21.973c-2.978,0-5.955,0-8.932,0c0-2.859,0-5.718,0-8.578c0-4.86,3.926-8.58,8.787-8.58
		c4.859,0,8.787,3.72,8.787,8.58C151.309,18.206,147.458,21.9,142.666,21.973z"/>
	<path d="M124.672,139.904c0-8.1,0-16.199,0-24.299c-7.799,0-15.597,0-23.396,0c0,8.1,0,16.199,0,24.299c-8.101,0-16.201,0-24.302,0
		c0,6.599,0,13.198,0,19.797c8.101,0,16.201,0,24.302,0c0,10.2,0,20.4,0,30.601c0,12.418,1.977,20.16,6.476,26.099
		c5.939,7.919,16.201,12.598,30.238,12.598c4.5,0,11.519-0.717,14.58-1.799c-1.199-6.6-2.398-13.2-3.6-19.8
		c-1.619,0.362-6.121,0.9-9.54,0.9c-5.759,0-9.539-1.617-11.881-4.317c-1.978-2.345-2.878-5.582-2.878-10.981c0-11.1,0-22.2,0-33.3
		c9.6,0,19.197,0,28.797,0c0.193,0,0.387,0,0.581,0c2.016-4.809,4.674-9.352,7.93-13.422c1.827-2.286,3.844-4.422,6.024-6.375
		c-4.845,0-9.689,0-14.535,0C143.869,139.904,134.271,139.904,124.672,139.904z"/>
	<path d="M791.464,139.904c0-8.1,0-16.199,0-24.299c-7.799,0-15.598,0-23.396,0c0,8.1,0,16.199,0,24.299c-8.101,0-16.201,0-24.302,0
		c0,6.599,0,13.198,0,19.797c8.101,0,16.201,0,24.302,0c0,10.2,0,20.4,0,30.601c0,12.418,1.978,20.16,6.477,26.099
		c5.938,7.919,16.2,12.598,30.237,12.598c4.5,0,11.52-0.717,14.581-1.799c-1.2-6.6-2.399-13.2-3.6-19.8
		c-1.62,0.362-6.122,0.9-9.541,0.9c-5.759,0-9.538-1.617-11.881-4.317c-1.978-2.345-2.877-5.582-2.877-10.981c0-11.1,0-22.2,0-33.3
		c9.599,0,19.197,0,28.796,0c0.193,0,0.388,0,0.581,0c2.016-4.809,4.675-9.352,7.931-13.422c1.827-2.286,3.844-4.422,6.024-6.375
		c-4.845,0-9.69,0-14.536,0C810.661,139.904,801.062,139.904,791.464,139.904z"/>
	<path d="M242.198,213.341c-8.459,10.076-22.319,15.658-35.819,15.658c-26.1,0-45.717-18-45.717-45.356
		c0-24.301,16.561-45.541,42.477-45.541c24.119,0,41.219,20.34,41.219,44.639c0,2.34-0.18,4.682-0.539,6.662
		c-20.159,0-40.318,0-60.477,0c1.26,12.236,11.158,20.697,23.579,20.697c9.898,0,17.817-5.579,21.957-10.079
		C233.318,204.461,237.758,208.901,242.198,213.341z M220.419,172.302c-0.72-7.739-7.739-15.3-17.28-15.3
		c-9.719,0-17.637,7.381-18.717,15.3C196.42,172.302,208.42,172.302,220.419,172.302z"/>
	<path d="M476.518,227.2c-7.5,0-15,0-22.5,0c0-2.34,0-4.68,0-7.019c-7.199,6.116-15.48,8.816-24.299,8.816
		c-12.958,0-25.196-5.756-32.938-14.758c-6.839-7.919-11.158-18.717-11.158-30.595c0-25.739,19.077-45.541,42.836-45.541
		c9.901,0,18.721,3.242,25.559,8.821c0-2.34,0-4.679,0-7.019c7.5,0,15,0,22.5,0C476.518,169.003,476.518,198.102,476.518,227.2z
		 M453.118,170.501c-4.859-6.479-12.601-10.799-21.599-10.799c-13.679,0-22.5,11.341-22.5,23.942c0,13.675,9.9,23.756,23.039,23.756
		c8.822,0,16.561-4.322,21.06-10.801C453.118,187.9,453.118,179.2,453.118,170.501z"/>
	<path d="M498.105,139.904c7.5,0,14.999,0,22.498,0c0,2.34,0,4.681,0,7.021c6.84-5.579,15.661-8.821,25.56-8.821
		c23.759,0,42.837,19.802,42.837,45.538c0,11.878-4.14,22.679-10.979,30.598c-7.739,8.999-20.16,14.758-33.118,14.758
		c-8.819,0-16.38-2.52-23.399-7.918c0,16.438,0,32.876,0,49.315c-7.799,0-15.6,0-23.398,0
		C498.105,226.898,498.105,183.401,498.105,139.904z M521.504,196.601c4.5,6.479,12.238,10.798,21.061,10.798
		c13.137,0,23.035-10.079,23.035-23.757c0-12.601-8.818-23.941-22.496-23.941c-8.998,0-16.74,4.322-21.6,10.801
		C521.504,179.201,521.504,187.901,521.504,196.601z"/>
	<rect x="603.389" y="99.408" width="23.398" height="127.792"/>
	<path d="M732.074,227.2c-7.499,0-14.998,0-22.496,0c0-2.34,0-4.68,0-7.019c-7.202,6.116-15.48,8.816-24.297,8.816
		c-12.961,0-25.199-5.756-32.94-14.758c-6.839-7.919-11.161-18.717-11.161-30.595c0-25.739,19.08-45.541,42.842-45.541
		c9.898,0,18.717,3.242,25.557,8.821c0-2.34,0-4.679,0-7.019c7.498,0,14.997,0,22.496,0
		C732.074,169.003,732.074,198.102,732.074,227.2z M708.678,170.501c-4.859-6.479-12.598-10.799-21.6-10.799
		c-13.678,0-22.499,11.341-22.499,23.942c0,13.675,9.901,23.756,23.039,23.756c8.821,0,16.56-4.322,21.06-10.801
		C708.678,187.9,708.678,179.2,708.678,170.501z"/>
	<path d="M908.988,213.341c-8.459,10.076-22.316,15.658-35.817,15.658c-26.099,0-45.718-18-45.718-45.356
		c0-24.301,16.56-45.541,42.479-45.541c24.116,0,41.217,20.34,41.217,44.639c0,2.34-0.178,4.682-0.541,6.662
		c-20.158,0-40.316,0-60.476,0c1.263,12.236,11.161,20.697,23.579,20.697c9.9,0,17.82-5.579,21.959-10.079
		C900.109,204.461,904.549,208.901,908.988,213.341z M887.209,172.302c-0.718-7.739-7.739-15.3-17.277-15.3
		c-9.722,0-17.641,7.381-18.717,15.3C863.212,172.302,875.211,172.302,887.209,172.302z"/>
	<path d="M349.633,148.724c0-2.94,0-5.879,0-8.819c-7.5,0-15,0-22.499,0c0,29.098,0,58.196,0,87.295c7.8,0,15.599,0,23.399,0
		c0-18.299,0-36.598,0-54.897c5.584-9.593,17.607-14.725,28.418-12.053c0.529-1.256,1.104-2.493,1.721-3.708
		c1.826-3.596,4.035-6.999,6.589-10.121c1.4-1.712,2.903-3.34,4.501-4.87C378.803,135.727,359.752,136.745,349.633,148.724z"/>
	<rect x="136.637" y="32.262" width="12.157" height="35.068"/>
</g>
</svg>
